<svg xmlns="http://www.w3.org/2000/svg" viewBox="0 0 665.913 240"><radialGradient id="a" cx="172.331" cy="115.88" r="120" gradientUnits="userSpaceOnUse"><stop offset="0" stop-color="#6ec3ef"/><stop offset="1" stop-color="#0164a7"/></radialGradient><path d="M52.313 20.9C20.729 42.514 0 78.838 0 120c0 40.892 20.458 77.02 51.699 98.682a11.795 11.795 0 0 1-.516-3.512V26.5c0-1.965.393-3.856 1.13-5.6zm15.522 207.188C83.602 235.727 101.31 240 120 240c22.374 0 43.348-6.14 61.277-16.799a57.192 57.192 0 0 1-23.209 4.887H67.835zm134.957-21.22c25.046-23.891 39.793-58.522 36.832-96.484-4.671-59.902-54.136-107.6-114.16-110.263-20.702-.918-40.333 3.412-57.63 11.79h79.01c16.873 0 32.223 6.877 43.324 18.028 11.126 11.125 18.027 26.45 18.027 43.323 0 11.255-4.54 21.52-11.894 29.019-3.427 3.494-5.52 8.077-5.52 12.971v.347c0 6.387 2.961 12.541 8.252 16.12 10.204 6.902 16.947 18.593 16.947 31.777v6.68c0 13.901-4.96 26.697-13.188 36.693z" fill="url(#a)"/><radialGradient id="b" cx="154.205" cy="74.969" r="45.36" gradientUnits="userSpaceOnUse"><stop offset="0" stop-color="#6ec3ef"/><stop offset="1" stop-color="#0164a7"/></radialGradient><path d="M163.913 71.396c0 20.999-17.02 38.019-37.994 38.019-20.999 0-38.019-17.02-38.019-38.02s17.02-38.018 38.019-38.018c20.974 0 37.994 17.02 37.994 38.019z" fill="url(#b)"/><radialGradient id="c" cx="157.206" cy="164.786" r="42.556" gradientUnits="userSpaceOnUse"><stop offset="0" stop-color="#6ec3ef"/><stop offset="1" stop-color="#0164a7"/></radialGradient><path d="M173 165.289c0 23.504-19.058 42.562-42.562 42.562-23.48 0-42.538-19.058-42.538-42.562s19.059-42.563 42.538-42.563c23.504 0 42.563 19.059 42.563 42.563z" fill="url(#c)"/><path d="M256.252 123.082c-10.781 0-19.512 3.583-26.189 10.745-6.678 7.165-10.017 17.06-10.017 29.687 0 12.725 3.448 22.645 10.344 29.759 6.896 7.115 16.027 10.673 27.392 10.673 8.838 0 16.33-2.161 22.474-6.484 6.143-4.322 9.749-10.466 10.818-18.431h-14.206c-.194 4.516-2.222 8.002-6.082 10.453-3.861 2.454-8.197 3.68-13.004 3.68-6.363 0-11.718-2.16-16.064-6.483-4.347-4.324-6.811-10.953-7.394-19.89h58.207v-3.277c0-12.87-3.29-22.826-9.871-29.869-6.582-7.04-15.384-10.563-26.408-10.563zm-21.637 32.929c1.069-7.479 3.57-13.053 7.504-16.72 3.934-3.666 8.644-5.5 14.133-5.5 5.633 0 10.392 1.846 14.279 5.537 3.884 3.691 6.385 9.252 7.503 16.683h-43.419zm128.447-27.028c-5.535-3.934-13.258-5.9-23.164-5.9-21.226 0-32.346 7.94-33.367 23.82h13.696c.389-8.74 6.703-13.112 18.942-13.112 5.828 0 10.078.827 12.75 2.477 2.667 1.651 4.298 3.728 4.879 6.229.585 2.501.873 6.52.873 12.057h-6.702c-31.131 0-46.696 9.033-46.696 27.1 0 6.556 2.478 11.91 7.432 16.063 4.952 4.152 11.266 6.229 18.94 6.229 11.023 0 20.032-3.254 27.026-9.762v7.94h13.695V152.15c0-11.51-2.768-19.232-8.304-23.166zm-5.391 52.816c-2.428 3.497-5.752 6.265-9.978 8.305s-8.596 3.06-13.115 3.06c-4.953 0-8.887-1.057-11.801-3.169-2.914-2.113-4.371-5.136-4.371-9.07 0-10.83 9.956-16.245 29.868-16.245h9.397v17.119zm78.88-1.603c-6.364 8.257-13.382 12.385-21.054 12.385-5.147 0-8.84-1.384-11.074-4.153-2.233-2.768-3.35-7.308-3.35-13.622V124.83h-13.77v50.558c0 19.039 8.719 28.557 26.155 28.557 8.546 0 16.245-3.886 23.092-11.657v9.835h13.695v-77.293H436.55v55.365zm68.22-57.114c-8.596 0-15.954 3.668-22.072 11v-9.251h-13.77v107.016h13.77V196.15c5.73 5.197 12.771 7.795 21.125 7.795 9.421 0 17.228-3.68 23.42-11.038 6.194-7.357 9.29-17.374 9.29-30.05 0-12.19-2.768-21.866-8.306-29.03-5.535-7.163-13.357-10.746-23.457-10.746zm12.312 62.469c-3.497 5.075-8.208 7.613-14.132 7.613-7.627 0-14.379-3.133-20.252-9.398V147.05c6.264-8.84 13.208-13.259 20.835-13.259 5.924 0 10.536 2.466 13.841 7.395 3.3 4.93 4.953 12.154 4.953 21.672 0 10.053-1.748 17.618-5.245 22.693zm46.951-49.94v-10.78h-13.769v77.293h13.77v-54.637c5-7.332 10.999-11 17.992-11 3.644 0 6.435.29 8.378.873v-13.695c-2.235-.388-4.324-.583-6.264-.583-7.628 0-14.329 4.177-20.107 12.53zm81.96-19.214l-6.026-8.649-20.192 6.829 3.778 5.423 22.44-3.603zm19.919 47.117c0-12.87-3.29-22.826-9.872-29.869-6.582-7.04-15.384-10.563-26.407-10.563-10.783 0-19.514 3.583-26.19 10.745-6.678 7.165-10.017 17.06-10.017 29.687 0 12.725 3.447 22.645 10.345 29.759 6.895 7.115 16.026 10.673 27.392 10.673 8.838 0 16.329-2.161 22.474-6.484 6.142-4.322 9.75-10.466 10.817-18.431h-14.206c-.195 4.516-2.221 8.002-6.083 10.453-3.861 2.454-8.195 3.68-13.002 3.68-6.363 0-11.719-2.16-16.065-6.483-4.345-4.324-6.811-10.953-7.394-19.89h58.208v-3.277zm-57.915-7.503c1.067-7.479 3.569-13.053 7.502-16.72 3.933-3.666 8.644-5.5 14.134-5.5 5.632 0 10.392 1.846 14.278 5.537 3.885 3.691 6.385 9.252 7.502 16.683h-43.416z" fill="#267ec2"/><path d="M271.6 60.525h-18.554V26.903h-5.049v38.15H271.6v-4.528zm14.354 4.529h5.049V48.893l14.99-21.99h-6.143l-11.345 17.566-11.399-17.566h-6.141l14.989 21.99v16.16zm37.88.65c4.32 0 7.894-1.11 10.722-3.33 2.829-2.222 4.424-5.361 4.788-9.422h-5.204c-.244 2.707-1.285 4.789-3.123 6.246-1.84 1.458-4.251 2.186-7.235 2.186-3.834 0-6.87-1.336-9.108-4.008-2.238-2.67-3.357-6.47-3.357-11.397 0-4.945 1.128-8.749 3.383-11.412 2.255-2.662 5.318-3.995 9.186-3.995 2.863 0 5.235.713 7.118 2.135 1.882 1.422 2.927 3.34 3.136 5.75h5.204c-.364-3.66-2.003-6.61-4.918-8.848-2.915-2.237-6.446-3.356-10.591-3.356-5.397 0-9.703 1.773-12.92 5.322-3.22 3.547-4.829 8.349-4.829 14.404s1.61 10.855 4.828 14.404c3.218 3.547 7.524 5.322 12.92 5.322zm39.986-48.533h-6.14l-3.46 7.312h3.851l5.75-7.312zm8.304 43.354h-23.397V47.618h21.053V43.09h-21.053V31.43h22.512v-4.528h-27.56v38.15h28.445v-4.528zm32.882 0H381.61V47.618h21.054V43.09h-21.054V31.43h22.512v-4.528h-27.56v38.15h28.445v-4.528zM271.713 77.387c-2.239-.616-5.016-.925-8.333-.925h-15.118v40.515h5.362v-16.195h10.198c4.92 0 8.679-1.06 11.276-3.178s3.897-5.224 3.897-9.313c0-2.544-.654-4.841-1.962-6.896s-3.082-3.39-5.32-4.008zm-.47 16.652c-1.464 1.29-3.92 1.934-7.366 1.934h-10.253V81.271h10.143c2.34 0 4.131.165 5.375.497 1.245.331 2.271 1.124 3.082 2.377.81 1.253 1.216 2.69 1.216 4.311 0 2.432-.733 4.293-2.197 5.583zm43.419-12.52c-3.611-3.832-8.254-5.748-13.93-5.748-5.692 0-10.353 1.916-13.983 5.748-3.63 3.832-5.445 8.9-5.445 15.201 0 6.283 1.815 11.345 5.445 15.186s8.291 5.762 13.984 5.762c5.675 0 10.318-1.916 13.929-5.748 3.612-3.833 5.417-8.9 5.417-15.2 0-6.302-1.805-11.369-5.417-15.201zm-4.021 27.25c-2.588 2.874-5.91 4.312-9.963 4.312-4.016 0-7.324-1.441-9.921-4.326-2.598-2.882-3.897-6.895-3.897-12.035 0-5.159 1.303-9.176 3.911-12.05 2.606-2.874 5.946-4.31 10.018-4.31 3.997 0 7.287 1.436 9.866 4.31 2.58 2.874 3.869 6.891 3.869 12.05s-1.294 9.175-3.883 12.049zm13.738-32.307v40.515h25.067v-4.809h-19.705V76.462h-5.362zm50.16 0l-12.05 18.655-12.105-18.655h-6.524l15.919 23.353v17.162h5.363V99.815l15.918-23.353h-6.521zm14.93 0h-5.72l15.753 40.515h5.528l15.753-40.515h-5.72L402.267 111.2 389.47 76.46zm41.918 0l-15.56 40.515h5.666l4.478-12.325h16.969l4.698 12.325h6.052l-16.526-40.515h-5.777zm-3.95 23.934l6.796-18.793 7.131 18.793h-13.928zm35.717-23.934h-5.36v40.515h25.065v-4.809h-19.705V76.462zm28.65 21.998h22.357v-4.809h-22.358v-12.38h23.905v-4.81h-29.265v40.516h30.205v-4.809h-24.845V98.46zm56.257 9.978l-21.226-31.976h-5.471v40.515h5.085V85.001l21.223 31.976h5.502V76.462h-5.113v31.976zm8.059-31.976v4.809h13.292v35.706h5.389V81.271h13.405v-4.81H556.12zm-317.463 144.97h-11.748v-9.28h-2.992v22.602h2.992v-10.639h11.748v10.639h3.006v-22.602h-3.006v9.28zm16.172-9.28l-8.68 22.602h3.161l2.498-6.877h9.466l2.621 6.877h3.376l-9.22-22.602h-3.222zm-2.204 13.35l3.793-10.483 3.978 10.484h-7.77zm33.873-.323c0 2.97-.499 4.924-1.495 5.86s-2.457 1.403-4.379 1.403c-1.922 0-3.381-.468-4.378-1.404-.998-.935-1.495-2.888-1.495-5.859v-13.027h-2.992v13.074c0 1.82.172 3.418.517 4.794.344 1.378 1.166 2.575 2.466 3.593 1.3 1.017 3.261 1.526 5.882 1.526 1.984 0 3.633-.322 4.95-.963a6.332 6.332 0 0 0 2.952-2.907c.652-1.294.979-3.309.979-6.043v-13.074h-3.007v13.027zm22.588-2.42c2.168-1.048 3.252-2.662 3.252-4.841 0-1.788-.689-3.197-2.065-4.225-1.378-1.028-3.27-1.541-5.675-1.541h-8.048v22.602h8.465c2.744 0 4.836-.565 6.275-1.696 1.439-1.13 2.158-2.755 2.158-4.872 0-1.264-.362-2.393-1.086-3.385-.726-.991-1.817-1.673-3.276-2.042zm-9.544-7.924h4.748c1.881 0 3.202.28 3.962.84.762.56 1.142 1.395 1.142 2.504 0 1.234-.391 2.116-1.172 2.645-.782.53-1.999.793-3.654.793h-5.026v-6.782zm5.442 17.236h-5.442v-7.77h5.056c2.179 0 3.683.31 4.51.932.828.622 1.241 1.606 1.241 2.953 0 2.59-1.789 3.885-5.365 3.885zm24.405-20.305c-3.175 0-5.776 1.07-7.8 3.207-2.026 2.138-3.038 4.964-3.038 8.48 0 3.505 1.012 6.329 3.038 8.472 2.024 2.143 4.625 3.214 7.8 3.214 3.166 0 5.757-1.069 7.77-3.207 2.015-2.137 3.022-4.964 3.022-8.48 0-3.515-1.007-6.341-3.022-8.48-2.013-2.136-4.604-3.206-7.77-3.206zm5.528 18.409c-1.444 1.603-3.297 2.404-5.559 2.404-2.24 0-4.084-.803-5.534-2.412-1.449-1.609-2.174-3.846-2.174-6.715 0-2.877.728-5.118 2.181-6.721 1.455-1.604 3.318-2.406 5.59-2.406 2.23 0 4.065.802 5.504 2.406 1.438 1.603 2.157 3.844 2.157 6.721 0 2.878-.721 5.12-2.165 6.723zm25.972-4.996c0 2.97-.499 4.924-1.496 5.86-.998.935-2.456 1.403-4.38 1.403-1.921 0-3.382-.468-4.377-1.404-.998-.935-1.497-2.888-1.497-5.859v-13.027h-2.99v13.074c0 1.82.172 3.418.518 4.794.343 1.378 1.165 2.575 2.465 3.593 1.3 1.017 3.262 1.526 5.881 1.526 1.984 0 3.634-.322 4.95-.963 1.315-.643 2.3-1.612 2.953-2.907.652-1.294.979-3.309.979-6.043v-13.074h-3.006v13.027zm23.035-.663v-.061c1.57-.32 2.81-1.003 3.715-2.05s1.358-2.354 1.358-3.916c0-1.367-.35-2.595-1.05-3.686-.699-1.088-1.603-1.803-2.714-2.143-1.11-.339-2.537-.508-4.286-.508h-10.006v22.602h2.991v-9.667h5.536c1.15 0 2.168.34 3.053 1.018a5.589 5.589 0 0 1 1.895 2.62l2.13 6.029h3.235l-2.267-6.152c-.82-2.22-2.02-3.582-3.59-4.086zm-3.315-2.112h-6.677v-7.77h7.14c3.226 0 4.84 1.285 4.84 3.855 0 1.439-.42 2.45-1.257 3.036-.837.586-2.187.88-4.046.88zm22.291-10.252h-7.169v22.602h7.17c7.68 0 11.517-3.81 11.517-11.425 0-7.451-3.838-11.177-11.518-11.177zm6.646 17.63c-1.192 1.526-3.427 2.289-6.706 2.289h-4.118v-17.236h4.118c3.289 0 5.526.74 6.714 2.22 1.187 1.48 1.782 3.57 1.782 6.274 0 2.776-.598 4.926-1.79 6.453zm11.347 4.972h3.008v-22.602h-3.008v22.602zm25.287-4.765l-11.841-17.837h-3.053v22.602h2.837v-17.839l11.841 17.839h3.068v-22.602h-2.852v17.837z" fill="#ee0d17"/></svg>